<mxfile host="app.diagrams.net" agent="Mozilla/5.0 (Windows NT 10.0; Win64; x64) AppleWebKit/537.36 (KHTML, like Gecko) Chrome/138.0.0.0 Safari/537.36 Edg/138.0.0.0" version="28.0.7">
  <diagram name="Page-1" id="CI66g5oTkOdrAjGOr_Wx">
    <mxGraphModel dx="1445" dy="773" grid="1" gridSize="10" guides="1" tooltips="1" connect="1" arrows="1" fold="1" page="1" pageScale="1" pageWidth="850" pageHeight="1100" math="0" shadow="0">
      <root>
        <mxCell id="0" />
        <mxCell id="1" parent="0" />
        <mxCell id="gA1zmFXjbtn8e52JCPgN-5" style="edgeStyle=orthogonalEdgeStyle;rounded=0;orthogonalLoop=1;jettySize=auto;html=1;entryX=0.5;entryY=0;entryDx=0;entryDy=0;" edge="1" parent="1" source="gA1zmFXjbtn8e52JCPgN-1" target="gA1zmFXjbtn8e52JCPgN-4">
          <mxGeometry relative="1" as="geometry" />
        </mxCell>
        <mxCell id="gA1zmFXjbtn8e52JCPgN-1" value="&lt;div style=&quot;text-align: justify;&quot;&gt;&lt;span style=&quot;font-size: 11px;&quot;&gt;&lt;br&gt;&lt;/span&gt;&lt;/div&gt;&lt;font style=&quot;&quot;&gt;&lt;div style=&quot;text-align: justify; font-size: 11px;&quot;&gt;&lt;span style=&quot;color: light-dark(black, rgb(237, 237, 237)); font-family: Calibri; font-style: italic; background-color: transparent;&quot;&gt;&quot;You are Moana, daughter of the&lt;/span&gt;&lt;/div&gt;&lt;span style=&quot;font-size: 11px; font-family: Calibri; color: black; font-style: italic;&quot;&gt;&lt;div style=&quot;text-align: justify;&quot;&gt;&lt;span style=&quot;color: light-dark(black, rgb(237, 237, 237)); background-color: transparent;&quot;&gt;chief. Your island is dying. The ocean calls to you.&lt;/span&gt;&lt;/div&gt;&lt;/span&gt;&lt;/font&gt;" style="rounded=0;whiteSpace=wrap;html=1;" vertex="1" parent="1">
          <mxGeometry x="270" y="630" width="280" height="90" as="geometry" />
        </mxCell>
        <mxCell id="gA1zmFXjbtn8e52JCPgN-3" style="edgeStyle=orthogonalEdgeStyle;rounded=0;orthogonalLoop=1;jettySize=auto;html=1;entryX=0.5;entryY=0;entryDx=0;entryDy=0;" edge="1" parent="1" source="gA1zmFXjbtn8e52JCPgN-2" target="gA1zmFXjbtn8e52JCPgN-1">
          <mxGeometry relative="1" as="geometry" />
        </mxCell>
        <mxCell id="gA1zmFXjbtn8e52JCPgN-2" value="start" style="rounded=1;whiteSpace=wrap;html=1;" vertex="1" parent="1">
          <mxGeometry x="350" y="500" width="120" height="60" as="geometry" />
        </mxCell>
        <mxCell id="gA1zmFXjbtn8e52JCPgN-7" value="listen to chief order" style="edgeStyle=orthogonalEdgeStyle;rounded=0;orthogonalLoop=1;jettySize=auto;html=1;entryX=0.5;entryY=0;entryDx=0;entryDy=0;" edge="1" parent="1" source="gA1zmFXjbtn8e52JCPgN-4" target="gA1zmFXjbtn8e52JCPgN-6">
          <mxGeometry relative="1" as="geometry" />
        </mxCell>
        <mxCell id="gA1zmFXjbtn8e52JCPgN-11" value="follow the heart and sail beyond the reef" style="edgeStyle=orthogonalEdgeStyle;rounded=0;orthogonalLoop=1;jettySize=auto;html=1;entryX=0.5;entryY=0;entryDx=0;entryDy=0;" edge="1" parent="1" source="gA1zmFXjbtn8e52JCPgN-4" target="gA1zmFXjbtn8e52JCPgN-10">
          <mxGeometry relative="1" as="geometry" />
        </mxCell>
        <mxCell id="gA1zmFXjbtn8e52JCPgN-4" value="&#xa;&lt;font style=&quot;forced-color-adjust: none;&quot;&gt;&lt;span style=&quot;forced-color-adjust: none; font-size: 11px; font-family: Calibri; color: light-dark(black, rgb(237, 237, 237)); font-style: italic;&quot; data-mx-given-colors=&quot;{&amp;quot;color&amp;quot;:&amp;quot;black&amp;quot;}&quot;&gt;&lt;div style=&quot;forced-color-adjust: none; text-align: justify;&quot;&gt;&lt;span style=&quot;forced-color-adjust: none; color: light-dark(black, rgb(237, 237, 237)); background-color: transparent;&quot;&gt;Will you listen to your&lt;/span&gt;&lt;/div&gt;&lt;div style=&quot;forced-color-adjust: none; text-align: justify;&quot;&gt;&lt;span style=&quot;forced-color-adjust: none; color: light-dark(black, rgb(237, 237, 237)); background-color: transparent;&quot;&gt;father and stay, or follow your heart and sail beyond the reef?â€œ&lt;/span&gt;&lt;/div&gt;&lt;/span&gt;&lt;/font&gt;&lt;div style=&quot;forced-color-adjust: none; text-align: justify;&quot;&gt;&lt;br style=&quot;forced-color-adjust: none; color: rgb(0, 0, 0); font-family: Helvetica; font-size: 12px; font-style: normal; font-variant-ligatures: normal; font-variant-caps: normal; font-weight: 400; letter-spacing: normal; orphans: 2; text-align: justify; text-indent: 0px; text-transform: none; widows: 2; word-spacing: 0px; -webkit-text-stroke-width: 0px; white-space: normal; background-color: rgb(236, 236, 236); text-decoration-thickness: initial; text-decoration-style: initial; text-decoration-color: initial;&quot;&gt;&#xa;&#xa;&lt;/div&gt;" style="rhombus;whiteSpace=wrap;html=1;" vertex="1" parent="1">
          <mxGeometry x="325" y="780" width="170" height="130" as="geometry" />
        </mxCell>
        <mxCell id="gA1zmFXjbtn8e52JCPgN-9" style="edgeStyle=orthogonalEdgeStyle;rounded=0;orthogonalLoop=1;jettySize=auto;html=1;entryX=0.5;entryY=0;entryDx=0;entryDy=0;" edge="1" parent="1" source="gA1zmFXjbtn8e52JCPgN-6" target="gA1zmFXjbtn8e52JCPgN-8">
          <mxGeometry relative="1" as="geometry" />
        </mxCell>
        <mxCell id="gA1zmFXjbtn8e52JCPgN-6" value="stay in the island" style="rounded=0;whiteSpace=wrap;html=1;" vertex="1" parent="1">
          <mxGeometry x="100" y="920" width="170" height="70" as="geometry" />
        </mxCell>
        <mxCell id="gA1zmFXjbtn8e52JCPgN-8" value="&lt;div&gt;At the end they didnt discoverd the problem&lt;/div&gt;the people have no more food to eat.&lt;div&gt;&lt;div&gt;&lt;div&gt;hei hei and pua become their food&lt;/div&gt;&lt;/div&gt;&lt;/div&gt;" style="rounded=0;whiteSpace=wrap;html=1;align=left;" vertex="1" parent="1">
          <mxGeometry x="100" y="1060" width="170" height="100" as="geometry" />
        </mxCell>
        <mxCell id="gA1zmFXjbtn8e52JCPgN-13" style="edgeStyle=orthogonalEdgeStyle;rounded=0;orthogonalLoop=1;jettySize=auto;html=1;exitX=0.5;exitY=1;exitDx=0;exitDy=0;entryX=0.5;entryY=0;entryDx=0;entryDy=0;" edge="1" parent="1" source="gA1zmFXjbtn8e52JCPgN-10" target="gA1zmFXjbtn8e52JCPgN-12">
          <mxGeometry relative="1" as="geometry" />
        </mxCell>
        <mxCell id="gA1zmFXjbtn8e52JCPgN-10" value="Moana decided to follow the heart and sail beyond the reef .&lt;div&gt;&lt;br&gt;&lt;/div&gt;" style="rounded=0;whiteSpace=wrap;html=1;" vertex="1" parent="1">
          <mxGeometry x="550" y="920" width="170" height="80" as="geometry" />
        </mxCell>
        <mxCell id="gA1zmFXjbtn8e52JCPgN-15" style="edgeStyle=orthogonalEdgeStyle;rounded=0;orthogonalLoop=1;jettySize=auto;html=1;entryX=0.5;entryY=0;entryDx=0;entryDy=0;" edge="1" parent="1" source="gA1zmFXjbtn8e52JCPgN-12" target="gA1zmFXjbtn8e52JCPgN-14">
          <mxGeometry relative="1" as="geometry" />
        </mxCell>
        <mxCell id="gA1zmFXjbtn8e52JCPgN-12" value="Before going out Tala gravely ill in the island , tell moana to find Maui to help moana among the adventure,&amp;nbsp;" style="rounded=0;whiteSpace=wrap;html=1;" vertex="1" parent="1">
          <mxGeometry x="545" y="1070" width="180" height="110" as="geometry" />
        </mxCell>
        <mxCell id="gA1zmFXjbtn8e52JCPgN-17" value="go alone" style="edgeStyle=orthogonalEdgeStyle;rounded=0;orthogonalLoop=1;jettySize=auto;html=1;exitX=0;exitY=0.5;exitDx=0;exitDy=0;entryX=0.5;entryY=0;entryDx=0;entryDy=0;" edge="1" parent="1" source="gA1zmFXjbtn8e52JCPgN-14" target="gA1zmFXjbtn8e52JCPgN-16">
          <mxGeometry relative="1" as="geometry" />
        </mxCell>
        <mxCell id="gA1zmFXjbtn8e52JCPgN-19" value="listen to Tala" style="edgeStyle=orthogonalEdgeStyle;rounded=0;orthogonalLoop=1;jettySize=auto;html=1;exitX=1;exitY=0.5;exitDx=0;exitDy=0;entryX=0.5;entryY=0;entryDx=0;entryDy=0;" edge="1" parent="1" source="gA1zmFXjbtn8e52JCPgN-14" target="gA1zmFXjbtn8e52JCPgN-18">
          <mxGeometry relative="1" as="geometry" />
        </mxCell>
        <mxCell id="gA1zmFXjbtn8e52JCPgN-14" value="Listen to Tala advise or go adventure alone?" style="rhombus;whiteSpace=wrap;html=1;" vertex="1" parent="1">
          <mxGeometry x="550" y="1250" width="170" height="120" as="geometry" />
        </mxCell>
        <mxCell id="gA1zmFXjbtn8e52JCPgN-16" value="without Maui help , Moana didn&#39;t successfully restore the heart of Te Fiti.&amp;nbsp;" style="rounded=0;whiteSpace=wrap;html=1;" vertex="1" parent="1">
          <mxGeometry x="350" y="1360" width="175" height="80" as="geometry" />
        </mxCell>
        <mxCell id="gA1zmFXjbtn8e52JCPgN-21" style="edgeStyle=orthogonalEdgeStyle;rounded=0;orthogonalLoop=1;jettySize=auto;html=1;entryX=0.5;entryY=0;entryDx=0;entryDy=0;" edge="1" parent="1" source="gA1zmFXjbtn8e52JCPgN-18" target="gA1zmFXjbtn8e52JCPgN-20">
          <mxGeometry relative="1" as="geometry" />
        </mxCell>
        <mxCell id="gA1zmFXjbtn8e52JCPgN-18" value="find Maui and help Maui to find the hook" style="rounded=0;whiteSpace=wrap;html=1;" vertex="1" parent="1">
          <mxGeometry x="760" y="1360" width="170" height="80" as="geometry" />
        </mxCell>
        <mxCell id="gA1zmFXjbtn8e52JCPgN-20" value="successfully find the problem and give back the Te Fiti and save the island&amp;nbsp;&amp;nbsp;" style="rounded=0;whiteSpace=wrap;html=1;" vertex="1" parent="1">
          <mxGeometry x="760" y="1500" width="170" height="90" as="geometry" />
        </mxCell>
      </root>
    </mxGraphModel>
  </diagram>
</mxfile>
